<?xml version="1.0" encoding="utf-8"?>
<!-- Generator: Adobe Illustrator 23.0.0, SVG Export Plug-In . SVG Version: 6.00 Build 0)  -->
<svg version="1.1" id="Capa_1" xmlns="http://www.w3.org/2000/svg" xmlns:xlink="http://www.w3.org/1999/xlink" x="0px" y="0px"
	 viewBox="0 0 291 126.99" style="enable-background:new 0 0 291 126.99;" xml:space="preserve">
<style type="text/css">
	.st0{fill:#2A4475;}
</style>
<g>
	<g>
		<path class="st0" d="M59.16,69.39c1.53,1.53,2.95,3.17,4.26,4.91c2.73,3.49,3.93,7.42,3.49,11.9c-0.76,5.24-3.93,9.17-7.97,12.12
			c-5.24,3.93-11.35,6.22-17.8,6.99c-5.68,0.55-10.92-0.22-15.83-2.95c-6.99-3.71-10.37-9.61-12.12-17.14
			c-0.76-2.73-0.76-5.68-1.53-8.95C9.91,85,8.93,93.19,11.88,101.38c1.75,4.91,4.91,8.41,9.61,10.7c6.99,3.17,14.08,4.26,21.51,3.49
			c7.97-0.76,14.85-3.93,20.85-9.17c5.9-5.46,9.93-11.9,9.61-20.31C73.35,78.01,67.13,71.35,59.16,69.39"/>
		<path class="st0" d="M33.18,37.18c10.7-8.19,22.27-14.63,34.72-19.87c0.55-0.22,0.76-0.55,1.2-0.55l-0.22-0.22
			c-12.12,1.2-24.56,2.18-36.9,3.49c1.53,1.75,2.51,3.17,3.71,4.69c0.98,1.2,0.76,1.53-0.55,2.18
			c-8.62,5.46-16.59,11.68-23.25,19.54C1.19,59.45-2.74,74.3,1.96,90.89c0.98,3.71,2.51,7.21,3.71,11.14l0.55-0.22
			C6,99.3,5.67,96.9,5.67,94.39c-0.76-9.17,0.55-17.8,3.71-26.53C14.4,54.76,23.03,45.04,33.18,37.18"/>
		<path class="st0" d="M61.89,59.02c-4.91-2.73-10.15-2.95-15.61-2.18c1.97,2.73,3.71,5.24,5.24,7.64c0.22,0.22,0.76,0.55,0.98,0.55
			c0.76,0.22,1.75,0.22,2.73,0.22c6.66,0.55,12.34,2.95,16.38,8.41c1.2,1.53,1.97,2.95,2.95,4.69
			C72.81,70.37,69.64,63.16,61.89,59.02"/>
	</g>
	<g>
		<path class="st0" d="M111.24,19.06c-1.75-0.98-3.49-1.53-5.24-1.53c-3.71,0-6.22,2.73-6.22,6.22c0,3.71,2.73,6.22,6.22,6.22
			c1.97,0,3.71-0.55,5.46-1.53v1.75c-1.75,0.76-3.49,1.53-5.46,1.53c-4.91,0-8.19-3.49-8.19-7.64c0-4.69,3.93-7.97,7.97-7.97
			c1.75,0,3.71,0.55,5.24,1.2L111.24,19.06L111.24,19.06z"/>
		<polygon class="st0" points="122.81,17.86 116.15,17.86 116.15,23.1 122.59,23.1 122.59,24.52 116.15,24.52 116.15,29.97 
			123.14,29.97 123.14,31.18 114.4,31.18 114.4,16.33 122.81,16.33 		"/>
		<polygon class="st0" points="139.73,31.18 138.42,31.18 127.61,18.84 127.61,31.18 126.09,31.18 126.09,16.33 127.29,16.33 
			138.2,28.77 138.2,16.33 139.73,16.33 		"/>
		<polygon class="st0" points="154.8,17.86 149.34,17.86 149.34,31.18 147.92,31.18 147.92,17.86 142.46,17.86 142.46,16.33 
			154.8,16.33 		"/>
		<path class="st0" d="M161.02,16.33c3.93,0,4.91,2.18,4.91,3.93c0,1.97-1.2,3.17-2.73,3.71c1.2,0.76,1.75,1.75,3.71,4.69
			c0.76,0.98,0.98,1.53,1.75,2.51h-1.97l-1.53-2.18c-0.55-0.98-1.2-1.97-1.97-2.73c-0.98-1.2-1.75-1.75-3.49-1.75h-1.2v6.99h-1.2
			V16.33H161.02z M159.06,17.86v5.24h1.97c1.97,0,3.49-0.98,3.49-2.73c0-1.53-1.2-2.73-3.49-2.73h-1.97V17.86z"/>
		<path class="st0" d="M169.65,23.75c0-3.93,2.95-7.64,8.19-7.64c4.91,0,8.19,3.71,8.19,7.64c0,4.48-3.71,7.64-8.19,7.64
			C173.14,31.72,169.65,28.23,169.65,23.75 M183.84,23.75c0-2.95-2.18-6.22-6.22-6.22c-3.93,0-6.22,2.95-6.22,6.22
			c0,3.71,2.95,6.22,6.22,6.22C181.11,29.97,183.84,27.46,183.84,23.75"/>
		<path class="st0" d="M198.69,16.11c4.91,0,8.95,2.18,8.95,7.64s-4.26,7.42-8.95,7.42H194V16.11H198.69z M195.41,29.97h2.95
			c2.95,0,7.21-0.98,7.21-5.9c0-5.24-3.93-5.9-7.21-5.9h-2.95V29.97z"/>
		<polygon class="st0" points="219.21,17.86 212.55,17.86 212.55,23.1 219.21,23.1 219.21,24.52 212.55,24.52 212.55,29.97 
			219.43,29.97 219.43,31.18 211.02,31.18 211.02,16.33 219.21,16.33 		"/>
		<rect x="98.57" y="42.86" class="st0" width="3.71" height="15.07"/>
		<polygon class="st0" points="121.39,57.92 118.44,57.92 109.93,48.53 109.93,57.92 106,57.92 106,42.86 109.71,42.86 
			117.68,51.81 117.68,42.86 121.39,42.86 		"/>
		<polygon class="st0" points="140.5,57.92 137.22,57.92 128.81,48.53 128.81,57.92 125.1,57.92 125.1,42.86 128.6,42.86 
			136.46,51.81 136.46,42.86 140.5,42.86 		"/>
		<path class="st0" d="M151.85,57.92c-5.24,0-8.41-3.71-8.41-7.64c0-3.49,2.95-7.64,8.62-7.64c5.24,0,8.62,3.71,8.62,7.64
			C160.47,53.77,157.75,57.92,151.85,57.92 M151.85,45.81c-2.73,0-4.69,1.75-4.69,4.69c0,3.71,2.95,4.69,4.69,4.69
			c2.51,0,4.69-1.53,4.69-4.69C156.76,47.77,154.8,45.81,151.85,45.81"/>
		<polygon class="st0" points="169.97,57.92 168.23,57.92 161.02,42.86 164.95,42.86 168.88,51.48 172.92,42.86 176.85,42.86 		"/>
		<path class="st0" d="M193.01,57.92h-4.04l-1.2-2.95h-6.66l-1.2,2.95h-4.04l5.9-15.07h4.26L193.01,57.92z M184.27,46.35l-2.18,5.9
			h4.69L184.27,46.35z"/>
		<path class="st0" d="M208.29,56.72c-2.18,1.2-3.93,1.53-5.9,1.53c-5.9,0-8.95-3.71-8.95-7.64c0-3.71,2.95-7.97,9.17-7.97
			c2.73,0,4.69,0.76,5.46,1.2v3.49c-0.55-0.55-2.51-1.75-5.24-1.75c-2.95,0-5.46,1.75-5.46,4.69c0,2.95,2.51,4.69,5.24,4.69
			c1.53,0,2.73-0.55,3.93-0.98l1.53-0.76L208.29,56.72C208.07,56.72,208.29,56.72,208.29,56.72z"/>
		<rect x="211.79" y="42.86" class="st0" width="3.71" height="15.07"/>
		<path class="st0" d="M226.85,57.92c-5.24,0-8.41-3.71-8.41-7.64c0-3.49,2.95-7.64,8.62-7.64c5.24,0,8.62,3.71,8.62,7.64
			C235.8,53.77,232.86,57.92,226.85,57.92 M227.18,45.81c-2.73,0-4.69,1.75-4.69,4.69c0,3.71,2.95,4.69,4.69,4.69
			c2.51,0,4.69-1.53,4.69-4.69C231.87,47.77,230.13,45.81,227.18,45.81 M226.85,41.87h-2.18l2.51-4.26h4.26L226.85,41.87z"/>
		<polygon class="st0" points="253.93,57.92 250.65,57.92 242.46,48.53 242.46,57.92 238.75,57.92 238.75,42.86 242.03,42.86 
			250.22,51.81 250.22,42.86 253.93,42.86 		"/>
		<polygon class="st0" points="104.25,76.26 104.25,84.45 102.5,84.45 102.5,76.26 96.83,69.39 99.12,69.39 103.49,75.06 
			107.96,69.39 109.93,69.39 		"/>
		<path class="st0" d="M123.36,69.39c0.98,0,2.51,0,3.93,0.55c1.2,0.55,4.69,2.18,4.69,6.99c0,1.53-0.55,4.69-3.71,6.44
			c-1.53,0.76-2.95,1.2-5.46,1.2h-5.9V69.6L123.36,69.39L123.36,69.39z M121.17,72.33v9.39h1.53c1.97,0,2.73-0.22,3.49-0.55
			c1.53-0.76,2.51-1.97,2.51-4.26c0-1.75-0.55-3.49-2.51-4.26c-0.98-0.55-1.97-0.55-2.95-0.55L121.17,72.33L121.17,72.33z"/>
		<polygon class="st0" points="146.39,84.45 135.26,84.45 135.26,69.39 146.39,69.39 146.39,72.12 139.19,72.12 139.19,75.28 
			145.85,75.28 145.85,78.01 139.19,78.01 139.19,81.72 146.39,81.72 		"/>
		<path class="st0" d="M160.04,73.32c-0.98-0.55-2.95-1.53-4.91-1.53c-2.18,0-2.18,1.2-2.18,1.2c0,0.76,1.53,1.53,3.71,2.18
			c1.97,0.76,4.26,1.75,4.26,4.69c0,3.49-3.71,4.48-5.9,4.48c-2.51,0-4.91-1.2-5.24-1.53v-3.17c1.2,0.76,2.95,1.75,5.24,1.75
			c0.55,0,2.18,0,2.18-1.53c0-0.98-0.76-1.2-2.73-1.97c-1.97-0.76-4.91-1.75-4.91-4.91c0-2.18,1.97-4.26,5.68-4.26
			c1.2,0,2.73,0.22,5.24,1.2L160.04,73.32L160.04,73.32z"/>
		<path class="st0" d="M178.82,84.45h-4.26l-1.2-2.95h-6.66l-0.98,2.95h-3.93l5.9-15.07h4.48L178.82,84.45z M169.97,73.1l-2.18,5.9
			h4.69L169.97,73.1z"/>
		<path class="st0" d="M186.57,69.39c1.53,0,2.73,0,3.93,0.76c0.76,0.55,1.97,1.75,1.97,3.49c0,2.51-1.97,3.49-2.51,3.71
			c1.2,0.55,1.75,1.97,1.97,2.73c0.55,0.76,1.2,2.18,1.53,2.95l0.55,1.2h-4.26c-0.22-0.76-1.75-3.71-1.97-4.26
			C186.8,78,186.03,78,185.05,78h-0.55v6.44h-3.71V69.39H186.57z M184.49,72.12v3.49h1.53c0.98,0,1.2,0,1.75-0.22
			s0.76-0.76,0.76-1.53c0-1.75-1.75-1.75-1.97-1.75L184.49,72.12L184.49,72.12z"/>
		<path class="st0" d="M201.85,69.39c1.53,0,2.73,0,3.93,0.76c0.76,0.55,1.97,1.75,1.97,3.49c0,2.51-1.97,3.49-2.51,3.71
			c1.2,0.55,1.75,1.97,1.97,2.73c0.55,0.76,1.2,2.18,1.53,2.95l0.55,1.2h-4.26c-0.22-0.76-1.75-3.71-1.97-4.26
			C202.08,78,201.31,78,200.33,78h-0.44v6.44h-3.71V69.39H201.85z M200.1,72.12v3.49h1.53c0.98,0,1.2,0,1.75-0.22
			s0.76-0.76,0.76-1.53c0-1.75-1.75-1.75-1.97-1.75L200.1,72.12L200.1,72.12z"/>
		<path class="st0" d="M218.99,84.45c-5.24,0-8.41-3.71-8.41-7.64c0-3.49,2.95-7.64,8.62-7.64c5.24,0,8.62,3.71,8.62,7.64
			C227.62,80.52,224.89,84.45,218.99,84.45 M218.99,72.33c-2.73,0-4.69,1.75-4.69,4.69c0,3.71,2.95,4.69,4.69,4.69
			c2.51,0,4.69-1.53,4.69-4.69C223.9,74.3,221.94,72.33,218.99,72.33"/>
		<polygon class="st0" points="242.03,84.45 230.56,84.45 230.56,69.39 234.38,69.39 234.38,81.72 242.03,81.72 		"/>
		<polygon class="st0" points="255.89,84.45 244.21,84.45 244.21,69.39 248.25,69.39 248.25,81.72 255.89,81.72 		"/>
		<path class="st0" d="M265.5,84.45c-5.24,0-8.41-3.71-8.41-7.64c0-3.49,2.95-7.64,8.62-7.64c5.24,0,8.62,3.71,8.62,7.64
			C274.23,80.52,271.29,84.45,265.5,84.45 M265.5,72.33c-2.73,0-4.69,1.75-4.69,4.69c0,3.71,2.95,4.69,4.69,4.69
			c2.51,0,4.69-1.53,4.69-4.69C270.3,74.3,268.23,72.33,265.5,72.33"/>
		<polygon class="st0" points="109.71,110.98 98.57,110.98 98.57,95.92 109.49,95.92 109.49,98.64 102.29,98.64 102.29,101.81 
			109.27,101.81 109.27,104.54 102.29,104.54 102.29,108.25 109.71,108.25 		"/>
		<polygon class="st0" points="129.25,110.98 125.54,110.98 125.54,101.81 121.39,106.51 120.85,106.51 116.91,101.81 
			116.91,110.98 113.2,110.98 113.2,95.92 116.37,95.92 121.17,101.59 126.09,95.92 129.25,95.92 		"/>
		<path class="st0" d="M139.4,95.92c0.98,0,1.97,0,3.49,0.55c1.2,0.76,2.18,1.97,2.18,3.93c0,1.53-0.76,2.95-1.97,3.93
			c-1.2,0.76-2.51,0.76-3.49,0.76h-2.18v5.9h-3.71V95.92H139.4z M137,98.64v3.49h1.2c1.2,0,2.73,0,2.73-1.75s-1.75-1.75-2.73-1.75
			H137V98.64z"/>
		<path class="st0" d="M153.38,95.92c1.53,0,2.73,0,3.93,0.76c0.76,0.55,1.97,1.75,1.97,3.49c0,2.51-1.97,3.49-2.51,3.71
			c1.2,0.55,1.75,1.97,1.97,2.73c0.55,0.76,1.2,2.18,1.53,2.95l0.55,1.2h-4.26c-0.22-0.76-1.75-3.71-1.97-4.26
			c-0.98-1.97-1.75-1.97-2.73-1.97h-0.55v6.22h-3.93V95.59L153.38,95.92L153.38,95.92z M151.3,98.64v3.49h1.53
			c0.98,0,1.2,0,1.75-0.22s0.76-0.76,0.76-1.53c0-1.75-1.75-1.75-1.97-1.75h-2.07V98.64z"/>
		<polygon class="st0" points="174.12,110.98 162.99,110.98 162.99,95.92 173.9,95.92 173.9,98.64 166.7,98.64 166.7,101.81 
			173.68,101.81 173.68,104.54 166.7,104.54 166.7,108.25 174.12,108.25 		"/>
		<polygon class="st0" points="192.68,110.98 189.51,110.98 181.11,101.59 181.11,110.98 177.4,110.98 177.4,95.92 180.78,95.92 
			188.75,104.76 188.75,95.92 192.68,95.92 		"/>
		<path class="st0" d="M202.62,95.92c0.98,0,2.51,0,3.93,0.55c1.2,0.55,4.69,2.18,4.69,6.99c0,1.53-0.55,4.69-3.71,6.44
			c-1.53,0.76-2.95,1.2-5.46,1.2h-5.9V96.13L202.62,95.92L202.62,95.92z M200.1,98.64v9.39h1.53c1.97,0,2.73-0.22,3.49-0.55
			c1.53-0.76,2.51-1.97,2.51-4.26c0-1.75-0.55-3.49-2.51-4.26c-0.98-0.55-1.97-0.55-2.95-0.55L200.1,98.64L200.1,98.64z"/>
		<polygon class="st0" points="225.65,110.98 214.52,110.98 214.52,95.92 225.43,95.92 225.43,98.64 218.23,98.64 218.23,101.81 
			225.21,101.81 225.21,104.54 218.23,104.54 218.23,108.25 225.65,108.25 		"/>
		<path class="st0" d="M235.04,95.92c0.98,0,2.51,0,3.93,0.55c1.2,0.55,4.69,2.18,4.69,6.99c0,1.53-0.55,4.69-3.71,6.44
			c-1.53,0.76-2.95,1.2-5.46,1.2h-5.9V96.13L235.04,95.92L235.04,95.92z M232.86,98.64v9.39h1.53c1.97,0,2.73-0.22,3.49-0.55
			c1.53-0.76,2.51-1.97,2.51-4.26c0-1.75-0.55-3.49-2.51-4.26c-0.98-0.55-1.97-0.55-2.95-0.55L232.86,98.64L232.86,98.64z"/>
		<path class="st0" d="M254.69,111.2c-5.24,0-8.41-3.71-8.41-7.64c0-3.49,2.95-7.64,8.62-7.64c5.24,0,8.62,3.71,8.62,7.64
			C263.32,107.05,260.59,111.2,254.69,111.2 M254.69,98.86c-2.73,0-4.69,1.75-4.69,4.69c0,3.71,2.95,4.69,4.69,4.69
			c2.51,0,4.69-1.53,4.69-4.69C259.6,100.61,257.64,98.86,254.69,98.86"/>
		<path class="st0" d="M272.27,95.92c1.53,0,2.73,0,3.93,0.76c0.76,0.55,1.97,1.75,1.97,3.49c0,2.51-1.97,3.49-2.51,3.71
			c1.2,0.55,1.75,1.97,1.97,2.73c0.55,0.76,1.2,2.18,1.53,2.95l0.55,1.2h-4.26c-0.22-0.76-1.75-3.71-1.97-4.26
			c-0.98-1.97-1.75-1.97-2.73-1.97h-0.55v6.22h-3.71V95.59L272.27,95.92L272.27,95.92z M270.3,98.64v3.49h1.53
			c0.98,0,1.2,0,1.75-0.22s0.76-0.76,0.76-1.53c0-1.75-1.75-1.75-1.97-1.75h-2.07V98.64z"/>
	</g>
</g>
</svg>
