<?xml version="1.0" encoding="utf-8"?>
<!-- Generator: Adobe Illustrator 23.0.0, SVG Export Plug-In . SVG Version: 6.00 Build 0)  -->
<svg version="1.1" id="Capa_1" xmlns="http://www.w3.org/2000/svg" xmlns:xlink="http://www.w3.org/1999/xlink" x="0px" y="0px"
	 viewBox="0 0 320 91.7" style="enable-background:new 0 0 320 91.7;" xml:space="preserve">
<style type="text/css">
	.st0{fill:#2A4475;}
	.st1{fill-rule:evenodd;clip-rule:evenodd;fill:#2A4475;}
	.st2{fill-rule:evenodd;clip-rule:evenodd;fill:#BE9054;}
	.st3{fill-rule:evenodd;clip-rule:evenodd;fill:#7A4617;}
	.st4{fill-rule:evenodd;clip-rule:evenodd;fill:#EFD278;}
	.st5{fill-rule:evenodd;clip-rule:evenodd;fill:#211915;}
	.st6{fill-rule:evenodd;clip-rule:evenodd;fill:#3A66AB;}
	.st7{fill-rule:evenodd;clip-rule:evenodd;fill:#FFFFFF;}
	.st8{fill-rule:evenodd;clip-rule:evenodd;fill:#D0B38C;}
	.st9{fill-rule:evenodd;clip-rule:evenodd;fill:#7F1627;}
</style>
<g>
	
		<ellipse transform="matrix(4.731081e-03 -1 1 4.731081e-03 56.4183 148.3338)" class="st0" cx="102.73" cy="45.82" rx="41.8" ry="0.7"/>
	<g>
		<g>
			<path class="st0" d="M145.6,35.3c0-2.4-0.7-4.1-2.1-5c-1.4-0.9-4-1.3-7.7-1.3h-3.2v12.3h3.3c2.5,0,4.5-0.2,5.9-0.5
				c1.4-0.3,2.4-0.9,3-1.8C145.3,38.2,145.6,36.9,145.6,35.3 M161.2,35.3c0,1.9-0.3,3.7-1,5.5c-0.7,1.8-1.7,3.5-3.1,5
				c-1.5,1.6-3.4,2.8-5.9,3.8s-5.3,1.5-8.7,1.5h-10.1v19.1h-15.3V19.3h25.4c3.3,0,6.2,0.5,8.7,1.5s4.4,2.3,5.9,3.8
				c1.4,1.6,2.5,3.3,3.1,5.1C160.9,31.5,161.2,33.3,161.2,35.3"/>
		</g>
		<g>
			<path class="st0" d="M218.7,47.3c0,4.3-0.8,8.1-2.4,11.1c-1.6,3.1-3.8,5.5-6.5,7.3s-5.6,3.1-8.7,3.8c-3.1,0.8-6.2,1.2-9.3,1.2
				c-4.3,0-8.5-0.7-12.6-2.2s-7.5-4-10.2-7.5s-4.1-8.1-4.1-13.7v-28h15.3v24.1c0,3.3,0.5,6.1,1.4,8.3c1,2.2,2.3,3.8,4,4.8
				s3.8,1.5,6.1,1.5s4.2-0.5,6-1.5c1.7-1,3.1-2.6,4.1-4.8c1-2.2,1.4-4.9,1.4-8.3V19.3h15.3v28H218.7z"/>
		</g>
		<g>
			<path class="st0" d="M271.4,66.3c-2.1,1.1-4.2,2-6.5,2.6c-2.2,0.7-4.4,1.1-6.7,1.4c-2.2,0.3-4.6,0.4-6.9,0.4
				c-4.4,0-8.4-0.6-11.9-1.8c-3.5-1.2-6.6-3-9.1-5.4c-2.6-2.4-4.5-5.2-5.8-8.4c-1.3-3.2-1.9-6.7-1.9-10.5c0-4.4,0.8-8.2,2.3-11.5
				c1.5-3.3,3.6-6,6.4-8.2c2.7-2.2,5.8-3.8,9.3-4.8s7.2-1.6,11-1.6c5.8,0,12.3,1.3,19.6,3.8v13.5c-2.5-1.6-5-2.9-7.5-3.9
				c-2.5-1-5.4-1.6-8.7-1.6c-3,0-5.7,0.6-8.3,1.8c-2.6,1.2-4.6,2.8-6.2,5c-1.6,2.2-2.4,4.7-2.4,7.6c0,2.6,0.7,4.9,2.1,7.1
				c1.4,2.1,3.3,3.8,5.7,5.1c2.4,1.3,5.2,1.9,8.2,1.9c2.5,0,4.8-0.3,7-0.9s4.1-1.3,5.6-2s3-1.6,4.6-2.6v13H271.4z"/>
		</g>
		<g>
			<path class="st0" d="M304.4,35.3c0-2.4-0.7-4.1-2.1-5s-4-1.3-7.7-1.3h-3.2v12.3h3.3c2.6,0,4.5-0.2,5.9-0.5c1.4-0.3,2.4-0.9,3-1.8
				C304.1,38.2,304.4,36.9,304.4,35.3 M320,35.3c0,1.9-0.3,3.7-1,5.5c-0.6,1.8-1.7,3.5-3.1,5c-1.4,1.6-3.4,2.8-5.9,3.8
				s-5.3,1.5-8.7,1.5h-10.1v19.1h-15.3V19.3h25.4c3.3,0,6.2,0.5,8.7,1.5s4.4,2.3,5.9,3.8c1.4,1.6,2.5,3.3,3.1,5.1
				C319.7,31.5,320,33.3,320,35.3"/>
		</g>
	</g>
	<g>
		<path class="st1" d="M66,44.7c-2.9-2.5-5.7-1.9-8.2-1.2c-0.1-0.1-0.2-0.3-0.2-0.4c0.4,0.9,0.9,1.8,1.5,2.7l0.2,0.3
			c0,0-6-0.3-11-4.5l-1.8-1.9c-0.6,0.2-1.2,0.6-1.8,0.8c0,0-0.1,0.8,0,2.1l-0.5,0.5c-1.7-3.7-3.7-9.8,0.4-15.3h5.3
			c0.5-1,1.4-2.2,2.4-3.1h13.9c-1.7,1.8-4.1,5.8-4.2,9.3C61.8,39.7,64.7,43.4,66,44.7c0.2,0.2,0.4,0.4,0.6,0.6
			C66.6,45.3,66.4,45.1,66,44.7 M56.5,21.5c-0.4,0.6-0.4,1.8,0.1,2.5c-0.7-0.4-2.6-1.6-4.2-1.8C54,21.8,56.5,21.5,56.5,21.5
			L56.5,21.5z M35.2,29.4l-4.9,0.4c0,0,1.4,1.5,2.1,2.3c0.3,0.3,0,0.7-0.4,0.4l-0.1-0.2l-2-2.1c0,0-0.4,14.2-0.5,15.9
			c0,0.5-0.4,0.5-0.5,0l-0.4-15.9c-0.7,0.7-1.4,1.6-2.1,2.2c-0.3,0.3-0.7-0.1-0.4-0.5l1.9-2.2c-1.6-0.1-3.2-0.3-4.9-0.4
			c-0.7,0-0.8-0.7,0-0.8l4.9-0.4c0,0-1.4-1.5-2.1-2.2c-0.4-0.4-0.1-0.7,0.2-0.5l2.4,2.2v-0.1c0.1-1.6,0.2-3.3,0.3-4.9
			c0-0.7,0.7-0.8,0.8,0l0.4,5c0,0,1.6-1.5,2.4-2.2c0.4-0.3,0.7,0,0.3,0.5l-2.2,2.2c0,0,3.3,0.3,4.9,0.4C35.9,28.6,36,29.2,35.2,29.4
			L35.2,29.4z M46.4,11.1c-18.9,0-34.5,15.6-34.5,34.6c0,3.1,0.4,6,1.2,8.8c4.5-0.9,5.6-2.6,9.2-3.4c1.9-0.4,3.9,0.3,2.9,1.8
			l-0.4,0.3c-0.3,0.3-0.3,0.9,0,1.1c0.1,0,0.6,0.5,1.4,0.5c6.8-0.6,7.6-2.9,11.8-3.7c1.9-0.4,4,0.3,2.9,1.8l-0.4,0.3
			c-0.3,0.3-0.3,0.9,0,1.1c0.1,0,0.6,0.5,1.2,0.5c6.8-0.6,7.5-2.9,11.8-3.7c1.9-0.4,4,0.3,2.9,1.8c0,0-0.4,0.3-0.5,0.3
			c-0.2,0.3-0.3,0.9,0,1.1c0.1,0,0.7,0.5,1.3,0.5c6.8-0.6,7.5-2.9,11.8-3.7c1.9-0.4,4,0.3,2.9,1.8l-0.4,0.3c-0.3,0.3-0.3,0.9,0,1.1
			c0.1,0,0.6,0.5,1.3,0.5c2.8-0.2,5.2-1,6.7-1.8c0.6-2.5,0.9-5,0.9-7.7C80.6,26.5,65.3,11.1,46.4,11.1L46.4,11.1z"/>
		<path class="st2" d="M74.2,39.5c-7.2,9.9-20,7.4-26,2.1l-1.8-1.9c-0.6,0.2-1.2,0.6-1.8,0.8c0,0-0.1,0.9,0,2.5c0-0.2,0-0.4-0.1-0.6
			c-0.6,0.6-1.1,1.1-1.8,2.3c1.6,3.3,2.3,4.9,5,8.5c0,0,0.4-0.1,0.7-0.3l0.1-0.1c-0.3-0.4-0.6-0.9-0.9-1.3c0.2,0.4,0.5,0.8,0.8,1.1
			l0.1,0.1c1.4-0.7,2.7-1.4,4.7-1.8c1.9-0.4,4,0.3,2.9,1.8c0,0-0.4,0.3-0.5,0.3c-0.2,0.3-0.3,0.9,0,1.1c0.1,0,0.7,0.5,1.3,0.5
			c6.8-0.6,7.6-2.9,11.9-3.7c1.8-0.3,3.7,0.3,3.1,1.6c2.3-2.1,4.4-5.2,6-10.3C76.7,41.5,75.5,40.4,74.2,39.5L74.2,39.5z M57.1,24.5
			h0.8l-0.4-3.3l0,0l0,0h-0.4v0.1V24.5L57.1,24.5z"/>
		<path class="st3" d="M65.1,47.8l2.4,3.8l0.3-0.2L65.1,47.8L65.1,47.8z M65.5,52.4l0.4-0.2l-3.3-4.4L65.5,52.4L65.5,52.4z
			 M63.5,53.3l0.4-0.2L60,47.9L63.5,53.3L63.5,53.3z M61.2,54.2l0.6-0.2l-4.6-6.1L61.2,54.2L61.2,54.2z M59,54.7l0.7-0.2l-5-6.6
			L59,54.7L59,54.7z"/>
		<path class="st4" d="M64.1,46c0,0,3.5-3.7,4.7-5.6c0,0,3.5,0,5.4-0.8C74.5,39,70.6,45.3,64.1,46L64.1,46z"/>
		<path class="st5" d="M72.3,52.3v-0.1c0-0.3-0.1-0.4-0.2-0.6C71.6,51,70.3,50.7,69,51c-1.8,0.3-2.9,0.9-4.2,1.5
			c-1.8,0.9-3.7,1.8-7.7,2.2c-0.5,0-1-0.3-1.2-0.4h-0.1c-0.1-0.1-0.1-0.2-0.2-0.3v-0.1c0-0.2,0.1-0.4,0.2-0.5s0.5-0.3,0.5-0.3l0,0
			c0.2-0.3,0.3-0.6,0.3-0.8c0-0.2-0.1-0.4-0.2-0.5c-0.4-0.7-1.8-1-3.2-0.7c-1.5,0.3-2.6,0.8-3.5,1.3c-1.2-2.7-1.6-5.8-1.4-10.5
			l0.1,0.1c0.1,0.1,0.2,0.1,0.3,0.2c3.8,3.1,9.4,4.7,14.4,4.1c0.4,0,0.8-0.1,1.2-0.2c3.6-0.4,6.4-2.5,8.1-4.2
			c0.7-0.7,1.3-1.4,1.9-2.2C74.5,39.8,76,41,76,41s1.8,1.3,1.9,1.5C76.5,46.9,74.7,50.1,72.3,52.3L72.3,52.3z M48.9,52.7
			c-2-5.3-2.8-7.6-2.3-12.7c0.3,0.3,1.2,1.2,1.5,1.5c-0.2,4.8,0.2,8.1,1.4,10.8v0.1C49.3,52.5,49.1,52.6,48.9,52.7L48.9,52.7z
			 M45.6,46.6v-0.1c0-0.1-0.1-0.3-0.1-0.4c0-0.2-0.1-0.3-0.1-0.5v-0.1c-0.3-1.1-0.4-2.1-0.4-2.8c0-0.4,0-0.8,0-1c0-0.4,0-0.7,0-0.9
			c0.3-0.1,0.6-0.2,0.8-0.4c0.2-0.1,0.4-0.2,0.7-0.3c-0.5,5.2,0.3,7.4,2.3,12.7C47.1,50.6,46.1,48.5,45.6,46.6L45.6,46.6z
			 M47.8,53.3c-2.4-3.3-3.2-5-4.5-7.7c0,0-0.3-0.6-0.3-0.7c0.6-1,1-1.5,1.5-2c0,0.2,0,0.4,0.1,0.6c0.2,1.9,0.8,4.5,2.4,7.3
			c0.4,0.8,0.9,1.6,1.5,2.3C48.3,53.1,48,53.2,47.8,53.3L47.8,53.3z M42.4,35.1c0-2.6,0.8-5,2.3-7.1h5.2h6.6
			c-0.1,0.2-0.2,0.6-0.4,1.2c-0.6,1.9-1,3.7-1,5.6c0,1.5,0.2,3,0.7,4.6c0.3,1.2,0.8,2.5,1.6,3.8c0.4,0.9,1,1.8,1.5,2.8l0,0
			c-1.2-0.1-6.4-0.8-10.6-4.4l-1.8-1.8l0-0.2h-0.1c-0.2,0.1-0.3,0.1-0.5,0.2c-0.2,0.1-0.3,0.2-0.5,0.2l-0.8,0.4h-0.1v0.1
			c0,0-0.1,0.7,0,1.8l-0.1,0.1c-0.1,0.1-0.2,0.2-0.3,0.3C43,40,42.4,37.4,42.4,35.1L42.4,35.1z M52.3,24.8h13.6
			c-1.6,1.8-4,5.6-4.1,9.2c0,0.2,0,0.3,0,0.5c0,4.5,1.9,7.6,3.3,9.4c-2.5-1.6-4.9-1.2-7.2-0.5c-0.1-0.1-0.2-0.3-0.2-0.4
			c-3-6-2.6-10.1-0.8-15.1l-0.1-0.2h-6.6C50.6,26.7,51.4,25.7,52.3,24.8 M64,45.8c-0.3,0.1-0.7,0.1-1,0.1c-1.2,0.1-2.4,0.1-3.7,0
			l-0.1-0.2c-0.5-0.7-0.9-1.5-1.2-2.1c2.3-0.7,4.8-1.1,7.4,0.7C64.6,45.1,64.1,45.7,64,45.8L64,45.8z M66.4,45.2
			c-0.6,0.2-1.3,0.4-1.9,0.5c0.2-0.3,0.7-0.7,1.1-1.2c0.2,0.1,0.3,0.2,0.5,0.4C66.2,45,66.3,45.2,66.4,45.2L66.4,45.2z M68.9,40.5
			c0.4,0,3.1-0.1,5-0.7c-0.5,0.6-1.7,2.1-3.4,3.4c-1.2,0.8-2.4,1.5-3.8,2c-0.2-0.1-0.3-0.3-0.5-0.4c-0.1-0.1-0.3-0.3-0.4-0.4
			C66.8,43.1,68.2,41.5,68.9,40.5 M76.1,40.8l-1.8-1.4h-0.1l0,0c-1.9,0.8-5.3,0.8-5.3,0.8h-0.1v0.1c-0.6,1-2,2.6-3.1,3.8
			c-1.4-1.6-3.5-4.8-3.5-9.6c0-0.2,0-0.3,0-0.5c0.1-3.6,2.6-7.6,4.2-9.2l-0.2-0.2H52.3l0,0l0,0c-1,0.9-1.9,2-2.4,3.1h-5.2h-0.1l0,0
			c-3,4.1-3.2,9.1-0.5,15.2c-0.4,0.4-0.8,0.9-1.3,1.8v0.1l0.4,0.8c1.3,2.8,2,4.2,4.5,7.6l0.2,0.3l1-0.6l-0.1-0.1l0,0l0.2-0.1l0,0
			c1.2-0.6,2.5-1.2,4.4-1.5c1.3-0.2,2.6,0,3,0.6c0.1,0.1,0.1,0.2,0.1,0.4c0,0.2-0.1,0.4-0.2,0.7l-0.4,0.3l0,0
			c-0.1,0.2-0.2,0.4-0.2,0.7c0,0.1,0,0.1,0,0.2c0,0.2,0.1,0.4,0.3,0.5h0.1c0.2,0.1,0.7,0.4,1.3,0.4c4.1-0.4,6-1.3,7.8-2.2
			c1.2-0.6,2.4-1.2,4.1-1.5c1.3-0.2,2.5,0,2.9,0.5c0.2,0.2,0.2,0.5,0,0.9l0.2,0.1c2.6-2.3,4.5-5.7,6-10.4v-0.1L76.1,40.8L76.1,40.8z
			"/>
		<path class="st6" d="M71.3,62.6c-0.3,0-0.6,0.1-0.9,0.1c-3.6,0.9-5.1,3.1-11.8,3.7c-2.3,0-3.6-2-2.9-3.8c-0.3,0-0.6,0.1-0.9,0.1
			c-3.6,0.9-5,3.1-11.8,3.7c-2.3,0-3.6-2-2.9-3.8c-0.3,0-0.6,0.1-0.9,0.1c-3.6,0.9-5.1,3.1-11.9,3.7c-2.4,0-3.7-2-2.9-3.8
			c-0.3,0-0.7,0.1-1,0.1c-2.2,0.6-3.6,1.6-5.8,2.4c1.8,2.6,3.9,5,6.4,7.1c1.6-0.7,2.8-1.5,4.9-1.9c1.9-0.4,4,0.3,2.9,1.8l-0.4,0.3
			c-0.3,0.3-0.3,0.9,0,1.1c0.1,0,0.6,0.4,1.2,0.4c6.8-0.6,7.5-2.9,11.8-3.7c1.9-0.4,3.9,0.3,2.9,1.8c0,0-0.4,0.3-0.5,0.3
			c-0.3,0.3-0.3,0.9,0,1.1c0.1,0,0.7,0.4,1.3,0.4c6.8-0.6,7.6-2.9,11.8-3.7c1.9-0.4,4,0.3,2.9,1.8l-0.4,0.3c-0.3,0.3-0.3,0.9,0,1.1
			c0.1,0,0.6,0.4,1.3,0.4c0.5,0,0.9-0.1,1.3-0.1c3.1-2.1,5.8-4.6,8-7.6C71.6,65.8,70.7,64.1,71.3,62.6L71.3,62.6z M73,56.4
			c-2.3-0.1-3.6-2.1-2.9-3.9c-0.3,0-0.6,0-0.9,0.1c-3.5,1-5,3.2-11.8,3.8c-2.3-0.1-3.6-2.1-2.9-3.9c-0.3,0-0.7,0-0.9,0.1
			c-3.6,1-5,3.2-11.8,3.8c-2.3-0.1-3.5-2.1-2.8-3.9c-0.3,0-0.6,0-0.9,0.1c-3.5,1-5,3.2-11.8,3.8c-1.6,0-2.7-1-3.1-2.2
			c0-0.1-0.1-0.3-0.1-0.4c0-0.4,0-0.9,0.2-1.3c-0.3,0-0.6,0-0.9,0.1c-3,0.9-4.6,2.6-9.1,3.5c0.9,2.7,2.1,5.3,3.6,7.7
			c2.6-0.9,3.9-2.1,6.7-2.7c1.9-0.4,4,0.3,2.9,1.8c0,0-0.4,0.3-0.5,0.3c-0.2,0.3-0.3,0.9,0,1.1c0.1,0,0.7,0.4,1.4,0.4
			c6.8-0.6,7.6-2.8,11.9-3.7c1.9-0.4,3.9,0.3,2.9,1.8c0,0-0.4,0.3-0.5,0.3c-0.2,0.3-0.3,0.9,0,1.1c0.1,0,0.6,0.4,1.3,0.4
			c6.8-0.6,7.5-2.8,11.8-3.7c1.9-0.4,3.9,0.3,2.9,1.8L57.3,63c-0.3,0.3-0.3,0.9,0,1.1c0.1,0,0.7,0.4,1.3,0.4
			c6.8-0.6,7.6-2.8,11.8-3.7c1.9-0.4,4,0.3,2.9,1.8c0,0-0.4,0.3-0.5,0.3c-0.3,0.3-0.3,0.9,0,1.1c0.1,0,0.6,0.4,1.3,0.4
			c0.1,0,0.1,0,0.2,0c1.9-2.9,3.4-6.1,4.3-9.6C77.2,55.6,74.7,56.3,73,56.4L73,56.4z M61.1,71.9c-0.3,0-0.6,0-1,0.1
			c-3.5,0.9-5,3.1-11.8,3.7c-2.3,0-3.6-2-2.9-3.8c-0.3,0-0.7,0-0.9,0.1c-3.6,0.9-5,3.1-11.8,3.7c-2.3,0-3.5-2-2.8-3.8
			c-0.3,0-0.6,0-0.9,0.1c-1.3,0.4-2.4,0.9-3.5,1.4c5.6,4.2,12.5,6.8,20.2,6.6c6.3-0.2,12.1-1.8,17.1-4.5
			C61.3,74.9,60.5,73.3,61.1,71.9L61.1,71.9z"/>
		<path class="st7" d="M12.8,56.1c-0.2-0.5-0.2-1.1-0.4-1.7c5-0.8,6-2.8,9.8-3.6c1.9-0.4,3.9,0.3,2.9,1.9L24.7,53
			c-0.3,0.3-0.3,0.9,0,1.1c0.1,0,0.6,0.5,1.4,0.5c6.8-0.6,7.6-3,11.8-3.8c1.9-0.4,4,0.3,2.9,1.9L40.4,53c-0.3,0.3-0.3,0.9,0,1.1
			c0.1,0,0.6,0.5,1.2,0.5c6.8-0.6,7.5-3,11.8-3.8c1.9-0.4,4,0.3,2.9,1.9c0,0-0.3,0.4-0.4,0.4c-0.2,0.3-0.3,0.8,0,1
			c0.1,0,0.6,0.4,1.3,0.4c6.8-0.6,7.2-2.9,11.8-3.8c1.9-0.3,4.1,0.4,3,1.9c0,0-0.4,0.4-0.5,0.5c-0.3,0.3-0.3,0.8,0,1
			c0.1,0,0.6,0.5,1.3,0.5c3.3-0.3,6-1.3,7.4-2.2c-0.1,0.1-0.6,2.3-0.7,2.3c-0.3,0.1-3.9,1.3-6.7,1.5c-2.3-0.1-3.6-2.1-2.9-3.9
			c-0.3,0-0.6,0-0.9,0.1c-3.5,1-5,3.2-11.8,3.8c-2.3-0.1-3.6-2.1-2.9-3.9c-0.3,0-0.7,0-0.9,0.1c-3.6,1-5,3.2-11.8,3.8
			c-2.3-0.1-3.5-2.1-2.8-3.9c-0.3,0-0.6,0-0.9,0.1c-3.5,1-5,3.2-11.8,3.8c-2.4-0.1-3.7-2.1-3-3.9c-0.3,0-0.6,0-0.9,0.1
			C19.1,53.5,17.7,55.3,12.8,56.1L12.8,56.1z"/>
		<path class="st8" d="M44.8,40.7l1.5-0.7c0,0-0.3,4.5,0.2,6.1c0,0,0.5,2.4,1.3,4.3c0.6,1.5,1.1,2.6,0.9,2.3c0,0-2.4-3.3-3.1-6.3
			C45.5,46.4,44.7,43.5,44.8,40.7L44.8,40.7L44.8,40.7z"/>
		<path class="st9" d="M78.7,30c0.8,1.6,2,2.2,4.1,1.3l5.1-2.4l-0.2-1.4l-5.6,2.6c-1.1,0.5-1.8,0.2-2.2-0.6
			c-0.4-0.8-0.1-1.5,0.9-2.1l5.5-2.9l-1-1l-5,2.7C78.4,27.2,78,28.4,78.7,30L78.7,30z M13.5,28.4c0.8-1.5,0.6-2.8-1.4-3.9l-4.9-2.9
			l-1.1,1l5.4,3.1c1,0.6,1.3,1.2,0.8,2c-0.4,0.8-1.1,0.9-2.1,0.4l-5.5-2.8l-0.2,1.4l5.1,2.6C11.5,30.2,12.7,29.9,13.5,28.4
			L13.5,28.4z M82.6,44.1L84,44l-0.2-2.8l2.4-0.2l0.2,2l1.4-0.1l-0.1-2l2.4-0.2l0.2,2.9l1.4-0.1l-0.3-4.2L82.3,40L82.6,44.1
			L82.6,44.1z M55.1,8.8l-2.8-0.6l0.5-2.3l2,0.4l0.3-1.4l-2-0.4l0.5-2.4l2.8,0.6l0.3-1.4l-4.1-0.8l-1.8,8.9l4.1,0.8L55.1,8.8
			L55.1,8.8z M42.5,9.1l-0.2-1.5l-2.8,0.5l-0.4-2.4l2-0.3L40.9,4l-2,0.3l-0.4-2.4l2.8-0.5L41.1,0l-4.2,0.7l1.5,9L42.5,9.1L42.5,9.1z
			 M9.1,45l-1.4,0.1l0.2,2.8l-2.4,0.2l-0.1-2l-1.5,0.1l0.1,2l-2.4,0.2l-0.2-2.9L0,45.6l0.3,4.2l9.1-0.6L9.1,45L9.1,45z M68,85.1
			l-3.8-6.7l1.1-0.6l3.8,6.7L68,85.1L68,85.1z M65.2,86.6l-3.3-6.9l1.1-0.5l3.3,6.9L65.2,86.6L65.2,86.6z M60,88.6l-5.3-6.4l1.2-0.4
			l3,3.6l0.4-4.7l1.2-0.4L60,88.6L60,88.6z M53.4,90.2l-2.1-2.6l-1.4,3l-1.2,0.2l1.9-4.1l-2.8-3.5L49,83l2.1,2.6l1.4-3l1.2-0.1
			l-1.9,4.1l2.8,3.5L53.4,90.2L53.4,90.2z M45.8,90.9l-1-4.8l-2,2.3l-1.7-2.5l-1.7,4.6l-1.2-0.1l2.6-7.5l2.2,3.5l2.7-3.1l1.4,7.8
			L45.8,90.9L45.8,90.9z M34.7,89.2c-1.3-0.3-2-2.3-1.4-4.3c0.5-2,2.1-3.4,3.4-3.1c0.9,0.3,1.4,1.2,1.5,2.4L37,83.8
			c-0.1-0.4-0.3-0.7-0.6-0.8c-0.7-0.2-1.5,0.8-1.9,2.2c-0.3,1.4-0.1,2.6,0.5,2.8c0.3,0.1,0.6-0.1,0.9-0.4l1.3,0.4
			C36.5,89,35.6,89.5,34.7,89.2L34.7,89.2z M31.1,88.4L30,87.9l0.8-4.8l-2.7,1.4l-0.7-3l-3.3,3.7L23,84.6l5-6.1l0.9,4l3.6-1.9
			L31.1,88.4L31.1,88.4z M45.9,82.2c-17.4,0-32-12.4-35.5-28.9h-10C4.2,75.1,23.1,91.7,46,91.7c22.8,0,41.8-16.6,45.6-38.4h-10
			C78,69.8,63.4,82.2,45.9,82.2L45.9,82.2z M90.4,44.7l-0.1,2.1l-7.6-0.4l-0.1,1.4l7.6,0.4l-0.1,2.1l1.4,0.1l0.2-5.6L90.4,44.7
			L90.4,44.7z M85.1,31.7c-2.7,0.5-4.3,2.6-3.8,4.8c0.2,0.8,0.6,1.6,1.3,2.2l1-0.8c-0.4-0.4-0.8-0.8-1-1.7c-0.3-1.4,1.1-2.7,2.8-3
			c1.8-0.4,3.4,0.3,3.6,1.8c0.1,0.6,0,1.4-0.4,1.9l1.3,0.4c0.5-0.8,0.7-1.8,0.5-2.6C90.1,32.4,87.8,31.2,85.1,31.7L85.1,31.7z
			 M77.1,26.6l1.2-0.8l-1.7-2.4l6.3-4.4l-0.8-1.1l-7.5,5.2L77.1,26.6L77.1,26.6z M72.7,17.4c-0.5,0.5-1.2,0.7-1.8,0.2
			c-0.3-0.3-0.5-0.9-0.6-1.4L69,16.8c0.2,0.8,0.5,1.4,1.1,1.9c1.1,1,2.6,0.8,3.7-0.3c2-2.2-0.8-3.9,0.4-5.2c0.5-0.6,1.3-0.5,1.7-0.1
			c0.4,0.4,0.5,0.9,0.6,1.4l1.3-0.5c-0.2-0.8-0.5-1.5-1.1-2c-1.1-1-2.6-0.8-3.6,0.3C71.1,14.5,73.9,16.1,72.7,17.4 M67.9,16.6
			l5.4-7.3l-1.1-0.8l-5.4,7.3L67.9,16.6L67.9,16.6z M66.4,6.5l0.7,0.4c0.6,0.4,0.9,1,0.5,1.8c-0.6,1-1.4,0.8-1.8,0.6L65,8.9
			L66.4,6.5L66.4,6.5z M62.6,13.2l1.8-3.2l0.4,0.2c0.2,0.1,0.3,0.3,0.3,0.5l0.1,4.1l1.5-0.2l-0.2-4c1,0.1,1.9-0.3,2.4-1.4
			c0.7-1.3,0.6-2.7-1-3.5l-2-1.1l-4.5,7.9L62.6,13.2L62.6,13.2z M59.2,7.5c1,0.3,1.3,1,1,1.8c-0.3,0.7-0.9,1-1.7,0.7l-0.9-0.3
			l0.9-2.5L59.2,7.5L59.2,7.5z M59.8,3.6l0.8,0.3c0.8,0.3,1.1,0.9,0.8,1.6c-0.3,0.9-1.1,1-1.8,0.8L58.8,6L59.8,3.6L59.8,3.6z
			 M58.4,11.4c1.3,0.5,2.6-0.1,3.1-1.5c0.4-1,0.2-2-0.6-2.5l0,0c0.7,0.1,1.5-0.4,2-1.6c0.5-1.3-0.1-2.5-1.4-3l-2.6-0.9l-3.1,8.5
			L58.4,11.4L58.4,11.4z M44.7,2.4L44.7,2.4l3.3,7L49.4,9l0.2-8.8h-1.4V7l0,0l-3.4-7l-1.3,0.4l-0.2,8.8h1.4V2.4L44.7,2.4z M32.1,3.6
			l2.2,7.3l1.3-0.4l-2.2-7.3l2-0.6L35,1.2l-5.3,1.6l0.4,1.4L32.1,3.6L32.1,3.6z M25,15.5l-3.6-5.7l0,0l6.5,4.1l0.9-1.1l-4.6-7.5
			L23,6l3.6,5.7l0,0l-6.5-4.1l-0.9,1.1l4.6,7.5L25,15.5L25,15.5z M22.8,17.2l-5.7-7.1L16,11l5.7,7L22.8,17.2L22.8,17.2z M14.7,24.9
			l1.4-0.4l-1.5-3.7l3.8,0.8l0.2-1.5l-4.5-0.8l-1.6-4.1l-1.4,0.4l1.5,3.5l-3.7-0.7l-0.1,1.5l4.3,0.7L14.7,24.9L14.7,24.9z M12,31.4
			l-1.4-0.5l-1,2.8l-7.2-2.5l-0.5,1.3l8.6,3L12,31.4L12,31.4z M1.7,41.8l7.6,0.8l0.1-1.4l-7.5-0.8l0.2-2.1l-1.4-0.2l-0.6,5.6
			l1.4,0.2L1.7,41.8L1.7,41.8z"/>
	</g>
</g>
</svg>
